<mxfile host="app.diagrams.net" modified="2022-07-18T08:18:02.496Z" agent="5.0 (Macintosh; Intel Mac OS X 10_15_7) AppleWebKit/537.36 (KHTML, like Gecko) Chrome/103.0.0.0 Safari/537.36" version="20.1.1" etag="VZMQrl_aq_1cc-oVClHX" type="github" pages="2">
  <diagram id="CM2yZiR9s1118sd3ifpE" name="组件关系图">
    <mxGraphModel dx="1426" dy="769" grid="1" gridSize="10" guides="1" tooltips="1" connect="1" arrows="1" fold="1" page="1" pageScale="1" pageWidth="827" pageHeight="1169" math="0" shadow="0">
      <root>
        <mxCell id="0" />
        <mxCell id="1" parent="0" />
        <mxCell id="2" value="容器面板" style="rounded=1;whiteSpace=wrap;html=1;fillColor=none;align=center;verticalAlign=top;spacing=0;spacingLeft=4;labelBorderColor=default;" parent="1" vertex="1">
          <mxGeometry x="240" y="120" width="320" height="80" as="geometry" />
        </mxCell>
        <mxCell id="3" value="Version.20220715" style="rounded=0;whiteSpace=wrap;html=1;labelBorderColor=none;fontSize=13;fillColor=none;" parent="1" vertex="1">
          <mxGeometry x="10" y="10" width="120" height="30" as="geometry" />
        </mxCell>
        <mxCell id="5" value="测算设置" style="rounded=1;whiteSpace=wrap;html=1;labelBorderColor=none;fillColor=none;" parent="1" vertex="1">
          <mxGeometry x="261" y="160" width="80" height="30" as="geometry" />
        </mxCell>
        <mxCell id="10" style="edgeStyle=none;html=1;entryX=0.5;entryY=0;entryDx=0;entryDy=0;" parent="1" source="6" target="8" edge="1">
          <mxGeometry relative="1" as="geometry" />
        </mxCell>
        <mxCell id="6" value="测算方案" style="rounded=1;whiteSpace=wrap;html=1;labelBorderColor=none;fillColor=none;" parent="1" vertex="1">
          <mxGeometry x="360" y="160" width="80" height="30" as="geometry" />
        </mxCell>
        <mxCell id="9" value="" style="edgeStyle=none;html=1;entryX=0.5;entryY=0;entryDx=0;entryDy=0;" parent="1" source="7" target="8" edge="1">
          <mxGeometry relative="1" as="geometry" />
        </mxCell>
        <mxCell id="7" value="我的测算" style="rounded=1;whiteSpace=wrap;html=1;labelBorderColor=none;fillColor=none;" parent="1" vertex="1">
          <mxGeometry x="460" y="160" width="80" height="30" as="geometry" />
        </mxCell>
        <mxCell id="18" value="编辑/详情" style="edgeStyle=none;html=1;entryX=0.75;entryY=0;entryDx=0;entryDy=0;" parent="1" source="8" target="15" edge="1">
          <mxGeometry relative="1" as="geometry" />
        </mxCell>
        <mxCell id="27" value="应用于方案生成" style="edgeStyle=none;html=1;entryX=0;entryY=0.5;entryDx=0;entryDy=0;" parent="1" source="8" target="26" edge="1">
          <mxGeometry relative="1" as="geometry">
            <mxPoint x="600" y="245" as="targetPoint" />
          </mxGeometry>
        </mxCell>
        <mxCell id="8" value="测算方案List" style="rounded=1;whiteSpace=wrap;html=1;labelBorderColor=none;fillColor=none;" parent="1" vertex="1">
          <mxGeometry x="440" y="230" width="80" height="30" as="geometry" />
        </mxCell>
        <mxCell id="11" value="高级设置Dialog" style="rounded=1;whiteSpace=wrap;html=1;labelBorderColor=none;fillColor=none;" parent="1" vertex="1">
          <mxGeometry x="80" y="170" width="80" height="30" as="geometry" />
        </mxCell>
        <mxCell id="13" value="具体类型" style="edgeStyle=elbowEdgeStyle;elbow=vertical;endArrow=classic;html=1;exitX=0.5;exitY=1;exitDx=0;exitDy=0;entryX=0.5;entryY=1;entryDx=0;entryDy=0;" parent="1" source="5" target="11" edge="1">
          <mxGeometry width="50" height="50" relative="1" as="geometry">
            <mxPoint x="380" y="250" as="sourcePoint" />
            <mxPoint x="430" y="200" as="targetPoint" />
            <Array as="points">
              <mxPoint x="230" y="230" />
            </Array>
          </mxGeometry>
        </mxCell>
        <mxCell id="16" value="生成测算结果" style="elbow=vertical;endArrow=classic;html=1;entryX=0.25;entryY=0;entryDx=0;entryDy=0;" parent="1" target="15" edge="1">
          <mxGeometry width="50" height="50" relative="1" as="geometry">
            <mxPoint x="310" y="190" as="sourcePoint" />
            <mxPoint x="430" y="190" as="targetPoint" />
          </mxGeometry>
        </mxCell>
        <mxCell id="23" value="" style="group" parent="1" vertex="1" connectable="0">
          <mxGeometry x="240" y="320" width="320" height="80" as="geometry" />
        </mxCell>
        <mxCell id="15" value="详情弹框" style="rounded=1;whiteSpace=wrap;html=1;fillColor=none;align=center;verticalAlign=top;spacing=0;spacingLeft=4;labelBorderColor=default;" parent="23" vertex="1">
          <mxGeometry width="320" height="80" as="geometry" />
        </mxCell>
        <mxCell id="20" value="时序列表" style="rounded=1;whiteSpace=wrap;html=1;labelBorderColor=none;fillColor=none;" parent="23" vertex="1">
          <mxGeometry x="21" y="35" width="80" height="30" as="geometry" />
        </mxCell>
        <mxCell id="21" value="方案详情" style="rounded=1;whiteSpace=wrap;html=1;labelBorderColor=none;fillColor=none;" parent="23" vertex="1">
          <mxGeometry x="120" y="35" width="80" height="30" as="geometry" />
        </mxCell>
        <mxCell id="22" value="指标详情" style="rounded=1;whiteSpace=wrap;html=1;labelBorderColor=none;fillColor=none;" parent="23" vertex="1">
          <mxGeometry x="220" y="35" width="80" height="30" as="geometry" />
        </mxCell>
        <mxCell id="26" value="批量方案生成" style="text;html=1;strokeColor=default;fillColor=none;align=center;verticalAlign=middle;whiteSpace=wrap;rounded=1;labelBorderColor=none;dashed=1;" parent="1" vertex="1">
          <mxGeometry x="680" y="230" width="100" height="30" as="geometry" />
        </mxCell>
        <mxCell id="33" value="应用于方案生成" style="edgeStyle=elbowEdgeStyle;html=1;entryX=0.5;entryY=1;entryDx=0;entryDy=0;elbow=horizontal;exitX=0.5;exitY=1;exitDx=0;exitDy=0;" parent="1" source="20" target="26" edge="1">
          <mxGeometry relative="1" as="geometry">
            <Array as="points">
              <mxPoint x="510" y="420" />
            </Array>
          </mxGeometry>
        </mxCell>
        <mxCell id="34" value="手动排" style="text;html=1;strokeColor=default;fillColor=none;align=center;verticalAlign=middle;whiteSpace=wrap;rounded=1;labelBorderColor=none;dashed=1;" parent="1" vertex="1">
          <mxGeometry x="80" y="355" width="60" height="30" as="geometry" />
        </mxCell>
        <mxCell id="35" value="组件" style="rounded=1;whiteSpace=wrap;html=1;labelBorderColor=none;fillColor=none;" parent="1" vertex="1">
          <mxGeometry x="10" y="80" width="40" height="20" as="geometry" />
        </mxCell>
        <mxCell id="36" value="功能" style="text;html=1;strokeColor=default;fillColor=none;align=center;verticalAlign=middle;whiteSpace=wrap;rounded=1;labelBorderColor=none;dashed=1;" parent="1" vertex="1">
          <mxGeometry x="10" y="111" width="40" height="20" as="geometry" />
        </mxCell>
        <mxCell id="37" value="放置在场地内" style="edgeStyle=elbowEdgeStyle;html=1;entryX=1;entryY=0.5;entryDx=0;entryDy=0;" parent="1" source="20" target="34" edge="1">
          <mxGeometry relative="1" as="geometry">
            <mxPoint x="181" y="370" as="targetPoint" />
          </mxGeometry>
        </mxCell>
        <mxCell id="57" style="edgeStyle=elbowEdgeStyle;html=1;exitX=1;exitY=1;exitDx=0;exitDy=0;entryX=0.5;entryY=0;entryDx=0;entryDy=0;elbow=vertical;" parent="1" source="49" target="53" edge="1">
          <mxGeometry relative="1" as="geometry" />
        </mxCell>
        <mxCell id="58" style="edgeStyle=elbowEdgeStyle;html=1;exitX=0;exitY=1;exitDx=0;exitDy=0;entryX=0.5;entryY=0;entryDx=0;entryDy=0;elbow=vertical;" parent="1" source="49" target="51" edge="1">
          <mxGeometry relative="1" as="geometry" />
        </mxCell>
        <mxCell id="49" value="组合详情" style="rounded=1;whiteSpace=wrap;html=1;labelBorderColor=none;fillColor=none;" parent="1" vertex="1">
          <mxGeometry x="360" y="440" width="80" height="30" as="geometry" />
        </mxCell>
        <mxCell id="50" value="" style="edgeStyle=elbowEdgeStyle;html=1;" parent="1" source="21" target="49" edge="1">
          <mxGeometry relative="1" as="geometry" />
        </mxCell>
        <mxCell id="51" value="楼型卡片" style="rounded=1;whiteSpace=wrap;html=1;labelBorderColor=none;fillColor=none;" parent="1" vertex="1">
          <mxGeometry x="300" y="495" width="80" height="30" as="geometry" />
        </mxCell>
        <mxCell id="53" value="筛选" style="rounded=1;whiteSpace=wrap;html=1;labelBorderColor=none;fillColor=none;" parent="1" vertex="1">
          <mxGeometry x="420" y="495" width="80" height="30" as="geometry" />
        </mxCell>
      </root>
    </mxGraphModel>
  </diagram>
  <diagram id="2dziDsNscfEr_AuZuhuS" name="状态管理">
    <mxGraphModel dx="1406" dy="705" grid="1" gridSize="10" guides="1" tooltips="1" connect="1" arrows="1" fold="1" page="1" pageScale="1" pageWidth="1169" pageHeight="827" math="0" shadow="0">
      <root>
        <mxCell id="0" />
        <mxCell id="1" parent="0" />
        <mxCell id="Ptf_asFkCHRtyvWxrlqp-1" value="Version.20220718" style="rounded=0;whiteSpace=wrap;html=1;labelBorderColor=none;fontSize=13;fillColor=none;" vertex="1" parent="1">
          <mxGeometry x="10" y="10" width="120" height="30" as="geometry" />
        </mxCell>
        <mxCell id="BVealPusEiQkC19rNn72-1" value="local reducer" style="rounded=0;whiteSpace=wrap;html=1;fillColor=none;align=left;verticalAlign=top;spacing=4;labelBorderColor=none;spacingTop=-5;" vertex="1" parent="1">
          <mxGeometry x="230" y="200" width="560" height="70" as="geometry" />
        </mxCell>
      </root>
    </mxGraphModel>
  </diagram>
</mxfile>
